<svg width="365" height="404" viewBox="0 0 365 404" fill="none" xmlns="http://www.w3.org/2000/svg">
<g clip-path="url(#clip0_74_23)">
<path d="M333.387 325.932L311.22 135.905C310.139 118.503 297.658 105.024 282.619 105.024H257.672V94.1379C257.672 75.4331 250.808 57.8244 238.348 44.5594C225.764 31.1633 208.998 23.7861 191.13 23.7861C154.445 23.7861 124.596 55.3493 124.596 94.1379V105.024H99.6416C84.6095 105.024 72.1291 118.503 71.0474 135.905L48.8807 325.932C47.6812 345.209 60.8273 361.618 77.4749 361.618H304.786C321.44 361.618 334.586 345.209 333.387 325.932ZM138.463 94.1379C138.463 62.9471 162.085 37.5752 191.13 37.5752C205.115 37.5752 218.282 43.3942 228.211 53.9704C238.265 64.6707 243.805 78.9424 243.805 94.1379V105.024H138.463V94.1379Z" fill="#3B3B3B"/>
<path d="M311.204 138.58H71.0688L67.6914 167.537H314.534L311.204 138.58Z" fill="white" stroke="white"/>
</g>
<circle cx="292.5" cy="331.5" r="62.5" fill="#2C2C2C" stroke="white" stroke-width="20"/>
<line x1="266.728" y1="356.661" x2="319.169" y2="304.22" stroke="white" stroke-width="8"/>
<line x1="319.683" y1="357.877" x2="267.124" y2="305.318" stroke="white" stroke-width="8"/>
<defs>
<clipPath id="clip0_74_23">
<rect width="355" height="353" fill="white"/>
</clipPath>
</defs>
</svg>
