<svg width="135" height="108" viewBox="0 0 135 108" fill="none" xmlns="http://www.w3.org/2000/svg">
<path d="M0 32.4994V29.5926C0 27.714 0.730913 25.9123 2.03195 24.5839C3.33298 23.2556 5.09756 22.5093 6.9375 22.5093H104.062C105.902 22.5093 107.667 23.2556 108.968 24.5839C110.269 25.9123 111 27.714 111 29.5926V32.4994L55.5 67.9161L0 32.4994ZM57.3384 75.0968C56.787 75.4482 56.15 75.6345 55.5 75.6345C54.85 75.6345 54.213 75.4482 53.6616 75.0968L0 40.8525V100.426C0 102.305 0.730913 104.106 2.03195 105.435C3.33298 106.763 5.09756 107.509 6.9375 107.509H104.062C105.902 107.509 107.667 106.763 108.968 105.435C110.269 104.106 111 102.305 111 100.426V40.8525L57.3384 75.0968Z" fill="#ADADAD"/>
<path d="M110.185 53.5646C98.857 58.6189 85.5239 53.5129 80.4696 42.185C75.4153 30.857 80.5212 17.5239 91.8492 12.4696C103.177 7.41523 116.51 12.5212 121.565 23.8492C126.619 35.1772 121.513 48.5102 110.185 53.5646Z" fill="#C14C4C" stroke="white" stroke-width="5"/>
<path d="M95.9987 45.0093L86.5551 36.9468L90.4987 31.5085L95.9987 36.9468L108.5 22.8454L112.5 27.5088L95.9987 45.0093Z" fill="white"/>
</svg>
